<?xml version="1.0" encoding="iso-8859-1"?>
<!-- Generator: Adobe Illustrator 19.0.0, SVG Export Plug-In . SVG Version: 6.00 Build 0)  -->
<svg version="1.1" id="Capa_1" xmlns="http://www.w3.org/2000/svg" xmlns:xlink="http://www.w3.org/1999/xlink" x="0px" y="0px"
	 viewBox="0 0 512.001 512.001" style="enable-background:new 0 0 512.001 512.001;" xml:space="preserve">
<g>
	<g>
		<path fill="#9197B1" d="M492,0H20C8.954,0,0,8.954,0,20v96c0,5.844,2.622,11.276,6.642,14.885L156,264.924V492c0,6.362,3.027,12.345,8.153,16.114
			c5.079,3.734,11.683,4.891,17.813,2.976l160-50C350.316,458.48,356,450.748,356,442V264.924l149.358-134.04
			C509.585,127.091,512,121.68,512,116V20C512,8.954,503.046,0,492,0z M472,107.076l-149.358,134.04
			C318.415,244.909,316,250.32,316,256v171.296l-120,37.5V256c0-5.68-2.415-11.091-6.642-14.885L72.23,136H322
			c11.046,0,20-8.954,20-20s-8.954-20-20-20H40V40h432V107.076z"/>
	</g>
</g>
<g>
</g>
<g>
</g>
<g>
</g>
<g>
</g>
<g>
</g>
<g>
</g>
<g>
</g>
<g>
</g>
<g>
</g>
<g>
</g>
<g>
</g>
<g>
</g>
<g>
</g>
<g>
</g>
<g>
</g>
</svg>
