<?xml version="1.0" encoding="utf-8"?>
<!-- Generator: Adobe Illustrator 23.0.3, SVG Export Plug-In . SVG Version: 6.00 Build 0)  -->
<svg version="1.1" id="Capa_1" xmlns="http://www.w3.org/2000/svg" xmlns:xlink="http://www.w3.org/1999/xlink" x="0px" y="0px"
	 viewBox="0 0 512 512" style="enable-background:new 0 0 512 512;" xml:space="preserve">
<style type="text/css">
	.st0{fill:#8069F2;}
	.st1{fill:#FDFDFF;}
</style>
<g>
	<path class="st0" d="M196,150c41.4,0,75-33.6,75-75S237.4,0,196,0s-75,33.6-75,75S154.6,150,196,150z M196,30c24.8,0,45,20.2,45,45
		s-20.2,45-45,45s-45-20.2-45-45S171.2,30,196,30z"/>
	<path class="st0" d="M346,150c24.8,0,45-20.2,45-45s-20.2-45-45-45s-45,20.2-45,45S321.2,150,346,150z M346,90c8.3,0,15,6.7,15,15
		s-6.7,15-15,15s-15-6.7-15-15S337.7,90,346,90z"/>
	<path class="st1" d="M451,180H61v30h30.6c3,36.8,17,72.3,40.2,101.2l45,56.3c22.1,27.6,34.2,62.2,34.2,97.5v47h90v-47
		c0-35.3,12.1-69.9,34.2-97.5l45-56.3c23.2-28.9,37.1-64.4,40.1-101.2H451L451,180z M356.8,292.5l-45,56.3
		C285.5,381.6,271,422.9,271,465v17h-30v-17c0-42.1-14.5-83.4-40.8-116.2l-45-56.3c-18.9-23.6-30.5-52.5-33.5-82.5h268.5
		C387.3,240,375.7,268.8,356.8,292.5L356.8,292.5z"/>
</g>
</svg>
