<svg id="Capa_1" enable-background="new 0 0 512 512" height="512" viewBox="0 0 512 512" width="512" xmlns="http://www.w3.org/2000/svg">
<path fill="#868ba1" d="m216.667 275.328h-196.667c-11.046 0-20 8.954-20 20v196.667c0 11.046 8.954 20 20 20h196.667c11.046 0 20-8.954 20-20v-196.667c0-11.046-8.955-20-20-20zm-20 196.667h-156.667v-156.667h156.667zm197-196.667c-65.249 0-118.333 53.084-118.333 118.334 0 65.249 53.084 118.333 118.333 118.333 65.25 0 118.333-53.084 118.333-118.333 0-65.25-53.084-118.334-118.333-118.334zm0 196.667c-43.193 0-78.333-35.14-78.333-78.333s35.14-78.334 78.333-78.334 78.333 35.141 78.333 78.334-35.14 78.333-78.333 78.333zm-255.667-235.333h236c15.528 0 25.136-16.979 17.15-30.29l-118-196.667c-7.748-12.913-26.529-12.951-34.3 0l-118 196.667c-7.989 13.315 1.627 30.29 17.15 30.29zm118-177.794 82.676 137.794h-165.352z"/></svg>