<?xml version="1.0" encoding="iso-8859-1"?>
<!-- Generator: Adobe Illustrator 19.0.0, SVG Export Plug-In . SVG Version: 6.00 Build 0)  -->
<svg version="1.1" id="Capa_1" xmlns="http://www.w3.org/2000/svg" xmlns:xlink="http://www.w3.org/1999/xlink" x="0px" y="0px"
	 viewBox="0 0 512 512" style="enable-background:new 0 0 512 512;" xml:space="preserve">
<g>
	<g>
		<g>
			<path fill="#868ba1" d="M306.019,472H205.981c-11.05,0-20.008,8.954-20.008,20c0,11.046,8.958,20,20.008,20h100.038
				c11.05,0,20.008-8.954,20.008-20C326.027,480.954,317.069,472,306.019,472z"/>
			<path fill="#868ba1" d="M453.526,423.338l-36.818-76.601V160.646C416.708,72.066,344.615,0,256,0S95.292,72.066,95.292,160.646v186.091
				l-36.818,76.601c-2.979,6.198-2.564,13.49,1.098,19.31C63.234,448.468,69.63,452,76.508,452h358.984
				c6.878,0,13.274-3.532,16.936-9.352C456.09,436.828,456.505,429.536,453.526,423.338z M108.318,412l25.016-52.045
				c1.299-2.703,1.973-5.663,1.973-8.662V160.646C135.307,94.122,189.45,40,256,40s120.693,54.122,120.693,120.646v190.646
				c0,2.999,0.675,5.958,1.973,8.662L403.682,412H108.318z"/>
		</g>
	</g>
</g>
<g>
</g>
<g>
</g>
<g>
</g>
<g>
</g>
<g>
</g>
<g>
</g>
<g>
</g>
<g>
</g>
<g>
</g>
<g>
</g>
<g>
</g>
<g>
</g>
<g>
</g>
<g>
</g>
<g>
</g>
</svg>
