<?xml version="1.0" encoding="utf-8"?>
<!-- Svg Vector Icons : http://www.onlinewebfonts.com/icon -->
<!DOCTYPE svg PUBLIC "-//W3C//DTD SVG 1.1//EN" "http://www.w3.org/Graphics/SVG/1.1/DTD/svg11.dtd">
<svg version="1.1" xmlns="http://www.w3.org/2000/svg" xmlns:xlink="http://www.w3.org/1999/xlink" x="0px" y="0px" viewBox="0 0 1000 1000" enable-background="new 0 0 1000 1000" xml:space="preserve">
<metadata> Svg Vector Icons : http://www.onlinewebfonts.com/icon </metadata>
<g><path fill="#868ba1" d="M61.6,106.2L61.6,106.2c8.5,2.4,23.8-9,23.8-18.1v603.8c0,10.9,13.2,31,23.3,35.3l389.7,167c-1-0.4-3.9-0.9-8.3-0.3l9.9-1.3l9.9,1.3c-4.4-0.6-7.3-0.1-8.3,0.3l389.7-167c10.1-4.3,23.3-24.5,23.3-35.3V88.1c0,9.1,15.3,20.5,23.8,18.1L520.7,225.5l-20.7,5.9l-20.7-5.9L61.6,106.2z M82.3,33.7L82.3,33.7L500,153.1L917.7,33.7C957,22.5,990,46.7,990,88.1v603.8c0,40.7-30.9,88.3-69,104.6l-389.7,167c-11.2,4.8-21.9,6.4-31.3,5.1c-9.4,1.2-20.1-0.3-31.3-5.1L79,796.5c-38.1-16.3-69-63.9-69-104.6V88.1C10,46.7,43,22.5,82.3,33.7L82.3,33.7z"/>
<path fill="#868ba1" d="M273.8,540.8l-88.6,46.6l16.9-98.7l-71.7-69.9l99.1-14.4l44.3-89.8l44.3,89.8l99.1,14.4l-71.7,69.9l16.9,98.7L273.8,540.8L273.8,540.8z M625.1,426.1l225.1-75.8c19.7-6.6,30.3-28,23.7-47.8c-6.6-19.7-28-30.3-47.8-23.7L601,354.7c-19.7,6.6-30.3,28-23.7,47.8C584,422.2,605.4,432.8,625.1,426.1L625.1,426.1z M625.1,576.9l225.1-75.8c19.7-6.6,30.3-28,23.7-47.8c-6.6-19.7-28-30.3-47.8-23.7L601,505.5c-19.7,6.6-30.3,28-23.7,47.8C584,572.9,605.4,583.5,625.1,576.9L625.1,576.9z M625.1,727.7l225.1-75.8c19.7-6.6,30.3-28,23.7-47.8c-6.6-19.7-28-30.3-47.8-23.7L601,656.2c-19.7,6.6-30.3,28-23.7,47.8C584,723.7,605.4,734.3,625.1,727.7L625.1,727.7z"/></g>
</svg>