<svg height="512pt" viewBox="-39 0 512 512" width="512pt" xmlns="http://www.w3.org/2000/svg">
<path fill="#868ba1" d="m373.335938 0h-313.335938c-33.085938 0-60 26.914062-60 60v392c0 33.085938 26.914062 60 60 60h313.335938c33.082031 0 60-26.914062 60-60v-392c0-33.085938-26.917969-60-60-60zm-215.335938 40h117.335938v38.667969h-117.335938zm235.335938 412c0 11.027344-8.972657 20-20 20h-313.335938c-11.027344 0-20-8.972656-20-20v-392c0-11.027344 8.972656-20 20-20h58v58.667969c0 11.046875 8.953125 20 20 20h157.335938c11.042968 0 20-8.953125 20-20v-58.667969h58c11.027343 0 20 8.972656 20 20zm-235.335938-243.332031c0 11.046875-8.953125 20-20 20h-39.332031c-11.046875 0-20-8.953125-20-20s8.953125-20 20-20h39.332031c11.046875 0 20 8.953125 20 20zm196.667969 0c0 11.046875-8.953125 20-20 20h-118c-11.046875 0-20-8.953125-20-20s8.953125-20 20-20h118c11.046875 0 20 8.953125 20 20zm-196.667969 90c0 11.046875-8.953125 20-20 20h-39.332031c-11.046875 0-20-8.953125-20-20s8.953125-20 20-20h39.332031c11.046875 0 20 8.953125 20 20zm196.667969 0c0 11.046875-8.953125 20-20 20h-118c-11.046875 0-20-8.953125-20-20s8.953125-20 20-20h118c11.046875 0 20 8.953125 20 20zm-196.667969 90c0 11.046875-8.953125 20-20 20h-39.332031c-11.046875 0-20-8.953125-20-20s8.953125-20 20-20h39.332031c11.046875 0 20 8.953125 20 20zm196.667969 0c0 11.046875-8.953125 20-20 20h-118c-11.046875 0-20-8.953125-20-20s8.953125-20 20-20h118c11.046875 0 20 8.953125 20 20zm0 0"/></svg>