<svg height="512pt" viewBox="0 0 512 512" width="512pt" xmlns="http://www.w3.org/2000/svg">
<path fill="#868ba1" d="m512 256c0-140.679688-113.425781-255.238281-254.613281-255.984375-.386719-.01953125-.777344-.015625-1.164063-.01171875-.074218 0-.148437-.00390625-.222656-.00390625-141.484375 0-256 114.496094-256 256 0 141.550781 114.78125 256 256 256 141.832031 0 256-115.0625 256-256zm-96.296875 141.019531c-22.996094 0-45.296875-3.019531-66.546875-8.65625 36.269531-30.066406 63.605469-66.710937 81.710938-106.167969 12.339843 4.609376 24.984374 8.417969 37.855468 11.359376-6.878906 39.078124-24.292968 74.566406-49.203125 103.421874-1.273437.015626-2.546875.042969-3.816406.042969zm-247.65625-338.285156c21.769531-9.746094 45.433594-15.984375 70.269531-18.007813 7.136719 53.722657 28.933594 104.894532 62.746094 147.359376-35.929688 27.109374-79.496094 44.097656-125.832031 47.335937-23.179688-56.585937-25.316407-119.457031-7.183594-176.6875zm245.316406 49.46875c3.066407 16.074219 4.636719 32.546875 4.636719 49.046875 0 24.363281-3.378906 47.953125-9.679688 70.332031-18.101562-10.277343-34.855468-22.660156-49.9375-36.804687 23.011719-24.117188 41.628907-52.324219 54.683594-82.890625.097656.101562.195313.210937.296875.316406zm43.9375 69.480469c9.164063 23.46875 14.324219 48.921875 14.664063 75.515625-9.164063-2.316407-18.136719-5.136719-26.882813-8.414063 6.570313-21.636718 10.683594-44.117187 12.21875-67.101562zm-126.101562-16.613282c-26.9375-34.34375-45.449219-75.4375-52.398438-119.867187 37.84375 3.988281 72.808594 17.78125 102.289063 38.796875-11.050782 30.621094-28.234375 58.0625-49.890625 81.070312zm-2.851563 56.867188c19.761719 18.871094 41.992188 34.914062 65.921875 47.71875-19.847656 43.039062-51.125 79.757812-89.921875 106.25-45.253906-21.566406-83.324218-55.84375-109.574218-98.191406 48.730468-6.253906 94.40625-25.289063 133.574218-55.777344zm-208.410156-129.5625c-7.867188 47.917969-4.207031 98.429688 12.070312 146.078125-30.332031-3.464844-59.652343-12.761719-86.402343-27.4375 11.035156-47.417969 37.742187-88.882813 74.332031-118.640625zm-79.816406 160.757812c34.1875 16.328126 71.464844 25.445313 109.644531 26.710938 25.902344 49.566406 65.503906 91.039062 112.824219 119.25-50.769532 22.359375-105.441406 26.941406-155.988282 16.757812-43.109374-41.339843-68.464843-99.546874-66.480468-162.71875zm135.519531 207.355469c47.089844-2.675781 92.128906-16.199219 132.222656-39.371093 22.238281 8.5625 45.535157 14.433593 69.496094 17.476562-60.605469 41.3125-136.523437 48.121094-201.71875 21.894531zm0 0"/></svg>