<svg height="512pt" viewBox="0 -50 512 512" width="512pt" xmlns="http://www.w3.org/2000/svg">
<path fill="#868ba1" d="m58 302.933594c-11.046875 0-20 8.953125-20 20v69.226562c0 11.042969 8.953125 20 20 20s20-8.957031 20-20v-69.226562c0-11.046875-8.953125-20-20-20zm0 0"/>
<path fill="#868ba1" d="m190 201.191406c-11.046875 0-20 8.953125-20 20v170.964844c0 11.046875 8.953125 20 20 20s20-8.953125 20-20v-170.964844c0-11.046875-8.953125-20-20-20zm0 0"/>
<path fill="#868ba1" d="m322 268.75c-11.046875 0-20 8.953125-20 20v103.40625c0 11.046875 8.953125 20 20 20s20-8.953125 20-20v-103.40625c0-11.046875-8.953125-20-20-20zm0 0"/>
<path fill="#868ba1" d="m454 153.554688c-11.046875 0-20 8.957031-20 20v218.601562c0 11.046875 8.953125 20 20 20s20-8.953125 20-20v-218.601562c0-11.042969-8.953125-20-20-20zm0 0"/>
<path fill="#868ba1" d="m454 0c-31.980469 0-58 26.019531-58 58 0 7.300781 1.367188 14.28125 3.839844 20.71875l-49.984375 43.621094c-8.269531-4.550782-17.765625-7.144532-27.855469-7.144532-15.160156 0-28.972656 5.851563-39.316406 15.40625l-35.121094-17.972656c.277344-2.296875.4375-4.625.4375-6.996094 0-31.980468-26.019531-58-58-58s-58 26.019532-58 58c0 6.058594.9375 11.902344 2.667969 17.394532l-45.78125 35.289062c-8.953125-5.652344-19.539063-8.941406-30.886719-8.941406-31.980469 0-58 26.019531-58 58s26.019531 58 58 58 58-26.019531 58-58c0-6.058594-.9375-11.902344-2.667969-17.394531l45.78125-35.289063c8.953125 5.652344 19.539063 8.941406 30.886719 8.941406 15.160156 0 28.972656-5.851562 39.316406-15.410156l35.121094 17.976563c-.277344 2.292969-.4375 4.625-.4375 6.996093 0 31.980469 26.019531 58 58 58s58-26.019531 58-58c0-7.300781-1.367188-14.28125-3.839844-20.71875l49.984375-43.621093c8.273438 4.550781 17.765625 7.144531 27.855469 7.144531 31.980469 0 58-26.019531 58-58s-26.019531-58-58-58zm-396 225.375c-9.925781 0-18-8.074219-18-18s8.074219-18 18-18 18 8.074219 18 18-8.074219 18-18 18zm132-101.742188c-9.925781 0-18-8.074218-18-18 0-9.925781 8.074219-18 18-18s18 8.074219 18 18c0 9.925782-8.074219 18-18 18zm132 67.5625c-9.925781 0-18-8.078124-18-18 0-9.925781 8.074219-18 18-18s18 8.074219 18 18c0 9.921876-8.074219 18-18 18zm132-115.195312c-9.925781 0-18-8.074219-18-18s8.074219-18 18-18 18 8.074219 18 18-8.074219 18-18 18zm0 0"/></svg>