<svg id="Capa_1" enable-background="new 0 0 512 512" height="512" viewBox="0 0 512 512" width="512" xmlns="http://www.w3.org/2000/svg">
<path fill="#868ba1" d="m393.333 236c0 11.046-8.954 20-20 20h-234.666c-11.046 0-20-8.954-20-20s8.954-20 20-20h234.666c11.046 0 20 8.954 20 20zm-20 78.667h-234.666c-11.046 0-20 8.954-20 20s8.954 20 20 20h234.666c11.046 0 20-8.954 20-20s-8.954-20-20-20zm138.667-235.667v413c0 11.046-8.954 20-20 20h-472c-11.046 0-20-8.954-20-20v-413c0-11.046 8.954-20 20-20h238.743c8.88-33.907 39.776-59 76.429-59s67.549 25.093 76.429 59h80.399c11.046 0 20 8.954 20 20zm-215.828 0c0 21.505 17.495 39 39 39s39-17.495 39-39-17.495-39-39-39-39 17.495-39 39zm175.828 20h-60.399c-13.221 50.486-71.254 74.612-116.301 48.157l-25.157 25.157c-7.811 7.811-20.476 7.809-28.285 0-7.81-7.811-7.81-20.475 0-28.285l25.157-25.157c-3.61-6.147-6.423-12.814-8.271-19.872h-218.744v373h432z"/></svg>