<?xml version="1.0" encoding="iso-8859-1"?>
<!-- Generator: Adobe Illustrator 19.0.0, SVG Export Plug-In . SVG Version: 6.00 Build 0)  -->
<svg fill="#9197b1" version="1.1" id="Capa_1" xmlns="http://www.w3.org/2000/svg" xmlns:xlink="http://www.w3.org/1999/xlink" x="0px" y="0px"
	 viewBox="0 0 512 512" style="enable-background:new 0 0 512 512;" xml:space="preserve">
<g>
	<g>
		<path fill="#9197b1" d="M506.143,477.858L371.895,343.61C401.931,307.28,420,260.711,420,210C420,94.206,325.794,0,210,0S0,94.206,0,210
			s94.206,210,210,210c50.711,0,97.28-18.069,133.611-48.105l134.247,134.247c7.81,7.81,20.474,7.811,28.285,0
			C513.952,498.332,513.953,485.669,506.143,477.858z M210,380c-93.738,0-170-76.262-170-170S116.262,40,210,40s170,76.262,170,170
			S303.738,380,210,380z"/>
	</g>
</g>
<g>
	<g>
		<circle cx="210" cy="210" r="25"/>
	</g>
</g>
<g>
	<g>
		<circle cx="135" cy="210" r="25"/>
	</g>
</g>
<g>
	<g>
		<circle cx="285" cy="210" r="25"/>
	</g>
</g>
<g>
</g>
<g>
</g>
<g>
</g>
<g>
</g>
<g>
</g>
<g>
</g>
<g>
</g>
<g>
</g>
<g>
</g>
<g>
</g>
<g>
</g>
<g>
</g>
<g>
</g>
<g>
</g>
<g>
</g>
</svg>
