<?xml version="1.0" encoding="utf-8"?>
<!-- Generator: Adobe Illustrator 23.0.3, SVG Export Plug-In . SVG Version: 6.00 Build 0)  -->
<svg version="1.1" id="Capa_1" xmlns="http://www.w3.org/2000/svg" xmlns:xlink="http://www.w3.org/1999/xlink" x="0px" y="0px"
	 viewBox="0 0 512 512" style="enable-background:new 0 0 512 512;" xml:space="preserve">
<style type="text/css">
	.st0{fill:#e35253;}
	.st1{fill:#e35253;}
</style>
<g>
	<path class="st0" d="M463.1,184L463.1,184l9.2-15c34.1-55.4,13.4-128.2-44.8-157.3c-52.6-26.3-116-6.9-145.2,43.1
		c-17.7-2-35.2-2-52.9,0C200.4,4.9,137-14.6,84.4,11.7C26.2,40.8,5.5,113.7,39.6,169l9.2,15C7.6,270.4,23.3,379.2,99.8,450.5
		l-25.3,25.3c-8.3,8.3-8.3,21.7,0,29.9c8.3,8.3,21.7,8.3,29.9,0l29.1-29.1c73.3,46.5,169.5,47.8,244.9,0l29.1,29.1
		c8.3,8.3,21.7,8.3,29.9,0c8.3-8.3,8.3-21.7,0-29.9l-25.3-25.3C488.4,379.6,504.5,270.7,463.1,184z M408.7,49.6
		c34.9,17.4,48,60.1,29.6,93.8C410,106.5,371.4,79,327.5,64.6C347.5,42.7,380.5,35.5,408.7,49.6z M103.3,49.6
		c28.2-14.1,61.2-6.9,81.2,15c-43.9,14.3-82.4,41.8-110.8,78.8C55.4,109.7,68.4,67.1,103.3,49.6z M256,469.6
		c-103.1,0-187-83.9-187-187c0-103.8,84.6-187,187-187c102.7,0,187,83.5,187,187C443,385.8,359.1,469.6,256,469.6z"/>
	<path class="st1" d="M277.2,273.9v-74.5c0-11.7-9.5-21.2-21.2-21.2s-21.2,9.5-21.2,21.2v83.3c0,5.6,2.2,11,6.2,15l41.6,41.6
		c8.3,8.3,21.7,8.3,29.9,0c8.3-8.3,8.3-21.7,0-29.9L277.2,273.9z"/>
</g>
</svg>
